<?xml version="1.0" encoding="UTF-8"?>
<svg width="108px" height="86px" viewBox="0 0 108 86" version="1.1" xmlns="http://www.w3.org/2000/svg" xmlns:xlink="http://www.w3.org/1999/xlink">
    <!-- Generator: Sketch 47.1 (45422) - http://www.bohemiancoding.com/sketch -->
    <title>1</title>
    <desc>Created with Sketch.</desc>
    <defs></defs>
    <g id="Page-1" stroke="none" stroke-width="1" fill="none" fill-rule="evenodd">
        <g id="立即试用落地页" transform="translate(-530.000000, -1844.000000)">
            <g id="Group-22" transform="translate(504.000000, 1844.000000)">
                <g id="1">
                    <g transform="translate(26.000000, 0.000000)">
                        <circle id="Oval" fill="#4DA1FF" opacity="0.11401721" cx="72" cy="36" r="36"></circle>
                        <circle id="Oval-Copy" fill="#4DA1FF" opacity="0.11401721" cx="10.5" cy="75.5" r="10.5"></circle>
                        <g id="工作-(1)" transform="translate(13.000000, 16.000000)">
                            <rect id="Rectangle-2" fill="#FFFFFF" x="4" y="15" width="59" height="44"></rect>
                            <rect id="Rectangle-2-Copy" fill="#FFFFFF" x="23" y="4" width="20" height="44"></rect>
                            <path d="M65.2774621,11.655578 C64.6813259,11.0565719 63.8017433,10.92949 62.5692522,10.9185321 L46.3451853,10.9185321 C46.2916339,8.032639 45.1431161,5.325602 43.0971897,3.27500805 C41.0013214,1.17447855 38.2116429,0.0113991343 35.2392121,0 L30.7194643,0 C27.7498326,0.00573633855 24.9579442,1.16337358 22.8580246,3.25993178 C20.8081942,5.30648087 19.6543728,8.01145867 19.5952969,10.8985284 L3.44430134,10.8985284 C2.24635714,10.9091186 1.32552455,11.0398042 0.725042411,11.6430758 C0.123308036,12.2476711 0,13.1679122 0,14.3637917 L0,60.4350127 C0,61.4723339 0.0942120536,62.5267906 0.7775625,63.213092 C1.46614286,63.9046885 2.5269308,64 3.57062946,64 L62.4091875,64 C63.4534018,64 64.5140424,63.9062329 65.1992344,63.2261826 C65.8853839,62.5452498 65.9798906,61.4918963 65.9798906,60.4556782 C65.9932969,45.4482399 66,29.2838612 66,14.3836483 C66,13.1818854 65.8770603,12.2580407 65.2774621,11.655578 Z M24.8017098,10.8386646 C24.8716875,9.34758429 25.4804933,7.94946209 26.5328839,6.87669324 C27.6474442,5.74053049 29.1377478,5.09342737 30.7298504,5.05400843 L35.1856607,5.05400843 C36.7936004,5.04091781 38.3730335,5.67919579 39.5172054,6.80829843 C40.5963348,7.87312466 41.2437388,9.32912505 41.3178415,10.8386646 L24.8017098,10.8386646 Z M5.34202232,29.9411132 L5.34202232,16.2719333 L60.6570201,16.2719333 L60.6390469,29.9411132 L5.34202232,29.9411132 Z M38.8497656,38.81694 L38.8497656,34.9575993 L60.637942,34.9575993 L60.637942,59 L5.32206027,59 L5.32206027,34.9152542 L27.1501607,34.9152542 L27.1501607,38.81694 L38.8497656,38.81694 L38.8497656,38.81694 Z" id="Shape" fill="#4DA1FF" fill-rule="nonzero"></path>
                        </g>
                        <rect id="Rectangle-12" fill="#FFFFFF" transform="translate(78.195730, 71.800333) rotate(136.000000) translate(-78.195730, -71.800333) " x="69.9912386" y="61.3003327" width="16.4089836" height="21"></rect>
                        <rect id="Rectangle-12-Copy" fill="#FFFFFF" x="69" y="53" width="10" height="21"></rect>
                        <g id="折扣" transform="translate(69.000000, 57.000000)" fill-rule="nonzero" fill="#21C4D3">
                            <path d="M27.7489023,15.5619539 C27.1850648,14.9839991 12.5389439,0 12.5389439,0 L6.19117994,0.189610282 L4.20233492,2.22424234 C4.78614763,2.93642138 5.33507439,3.65592526 5.75508987,4.2984863 C6.10976891,4.10601676 6.51267172,3.99617644 6.94152665,3.99617644 C8.34319305,3.99617644 9.4798332,5.15896102 9.4798332,6.59350319 C9.4798332,8.02688882 8.34319305,9.18915936 6.94152665,9.18915936 C5.54096125,9.18915936 4.40375487,8.02688882 4.40375487,6.59350319 C4.40375487,6.2798527 4.46075517,5.98152653 4.56034842,5.70360065 C3.93614476,5.2246596 3.22505654,4.58380126 2.53944859,3.92598016 L1,5.50085065 L1,12.1934961 L16.1746006,27.7169303 C16.1746006,27.7169303 16.6272686,28.3538371 17.2503398,27.7169303 C17.87231,27.0800557 27.7489023,16.9760315 27.7489023,16.9760315 C27.7489023,16.9760315 28.3138722,16.1393946 27.7489023,15.5619539 Z M14.9732217,11.991485 C15.9531425,10.9877263 17.2979029,10.840555 18.2441331,11.8097778 C19.1826564,12.7699409 19.0221307,14.0232899 18.0836389,14.9839991 C16.9336609,16.1592488 15.5990297,16.0386782 14.8032274,15.2256864 C13.9671286,14.3697415 13.9333751,13.0552237 14.9732217,11.991485 Z M10.2059265,11.3523615 L11.0592323,10.4788434 L13.2743484,12.7444325 L12.4204449,13.616794 L10.2059265,11.3523615 Z M19.7571578,21.365789 C18.6160821,22.5331034 17.2802555,22.4119546 16.4866553,21.599027 C15.6576972,20.7515314 15.6239437,19.4370136 16.6548565,18.3823667 C17.6360041,17.3791541 18.9796006,17.2319829 19.9180924,18.1915998 C20.8560494,19.1523091 20.695618,20.4056902 19.7571578,21.365789 Z M13.2654775,18.3387389 L12.5720997,17.629387 L21.4061715,15.0615202 L22.0900808,15.7618446 L13.2654775,18.3387389 Z" id="Shape"></path>
                            <path d="M17.2023909,15.1883381 C17.9150175,14.4807134 18.2728784,13.7401101 17.7539138,13.2250535 C17.2673871,12.7415797 16.4896035,13.0859212 15.7767759,13.7935458 C15.0316311,14.5123362 14.7614367,15.2966053 15.2373117,15.7687937 C15.7018916,16.2297367 16.4033037,15.9838127 17.2023909,15.1883381 Z" id="Shape"></path>
                            <path d="M17.7846442,20.7879729 C17.035529,21.5124923 16.7634026,22.3012894 17.2302109,22.7661284 C17.6971808,23.23165 18.4027864,22.9826492 19.1952495,22.1930491 C19.9123285,21.4799319 20.2704235,20.7342542 19.7601865,20.2262957 C19.2719265,19.740981 18.4895631,20.0862177 17.7846442,20.7879729 Z" id="Shape"></path>
                            <path d="M6.8888033,7 C6.90858393,7 6.94319126,6.99820529 6.95742067,6.98445716 C7.35854942,6.59659731 4.87767855,3.42687416 1.53271373,0.0471364509 C1.44002934,0.0304422912 1.24903907,0 1.03208452,0 C0.748409859,0 0.367061735,0.0518771859 0.163142026,0.300122388 C-0.00933244802,0.510780335 -0.0451694747,0.845543951 0.0561930958,1.29665875 C2.20455257,3.51999574 5.92401433,7 6.8888033,7 Z" id="Shape"></path>
                        </g>
                    </g>
                </g>
            </g>
        </g>
    </g>
</svg>