<?xml version="1.0" encoding="UTF-8"?>
<svg width="108px" height="86px" viewBox="0 0 108 86" version="1.1" xmlns="http://www.w3.org/2000/svg" xmlns:xlink="http://www.w3.org/1999/xlink">
    <!-- Generator: Sketch 47.1 (45422) - http://www.bohemiancoding.com/sketch -->
    <title>2</title>
    <desc>Created with Sketch.</desc>
    <defs></defs>
    <g id="Page-1" stroke="none" stroke-width="1" fill="none" fill-rule="evenodd">
        <g id="立即试用落地页" transform="translate(-782.000000, -1844.000000)">
            <g id="Group-22" transform="translate(504.000000, 1844.000000)">
                <g id="2" transform="translate(249.000000, 0.000000)">
                    <g transform="translate(29.000000, 0.000000)">
                        <circle id="Oval" fill="#4DA1FF" opacity="0.11401721" cx="70.6941176" cy="36.8470588" r="36.8470588"></circle>
                        <circle id="Oval-Copy" fill="#4DA1FF" opacity="0.11401721" cx="10.7470588" cy="75.2294118" r="10.7470588"></circle>
                        <g id="Group-23" transform="translate(8.258824, 6.164706)">
                            <rect id="Rectangle-15" fill="#4DA1FF" x="34.8" y="0" width="5.11764706" height="66.6200027" rx="2.55882353"></rect>
                            <path d="M36.8470588,68.4271049 L20.9954793,74.8315587 C19.9713403,75.2453377 18.8056774,74.7505432 18.3918984,73.7264042 L17.9732204,72.6901399 L17.9732204,72.6901399 C17.5594414,71.6660009 18.0542359,70.500338 19.0783749,70.086559 L35.2986384,63.5331472 L35.2986384,63.5331472 C35.8171497,63.323655 36.3719378,63.3470571 36.8470588,63.5541382 C37.3221798,63.3470571 37.8769679,63.323655 38.3954793,63.5331472 L38.3954793,63.5331472 L54.6157427,70.086559 C55.6398817,70.500338 56.1346762,71.6660009 55.7208972,72.6901399 L55.7208972,72.6901399 L55.3022193,73.7264042 C54.8884403,74.7505432 53.7227774,75.2453377 52.6986384,74.8315587 L36.8470588,68.4271049 Z" id="Combined-Shape" fill="#4DA1FF"></path>
                            <rect id="Rectangle-19" fill="#FFFFFF" x="4.09411765" y="13.2823529" width="66.5294118" height="41.9647059"></rect>
                            <path d="M3,9 L70.6941176,9 L70.6941176,9 C72.3509719,9 73.6941176,10.3431458 73.6941176,12 L73.6941176,56 L73.6941176,56 C73.6941176,57.6568542 72.3509719,59 70.6941176,59 L3,59 L3,59 C1.34314575,59 3.8818616e-15,57.6568542 0,56 L0,12 C-2.02906125e-16,10.3431458 1.34314575,9 3,9 L3,9 Z M7.11764706,14.2083333 C6.01307756,14.2083333 5.11764706,15.1037638 5.11764706,16.2083333 L5.11764706,51.7916667 C5.11764706,52.8962362 6.01307756,53.7916667 7.11764706,53.7916667 L66.5764706,53.7916667 C67.6810401,53.7916667 68.5764706,52.8962362 68.5764706,51.7916667 L68.5764706,16.2083333 C68.5764706,15.1037638 67.6810401,14.2083333 66.5764706,14.2083333 L7.11764706,14.2083333 Z" id="Combined-Shape" fill="#4DA1FF"></path>
                            <g id="Group-26" transform="translate(37.358824, 33.752941) rotate(-45.000000) translate(-37.358824, -33.752941) translate(26.858824, 15.252941)" fill="#4DA1FF">
                                <rect id="Rectangle-20" transform="translate(10.500000, 18.500000) rotate(-270.000000) translate(-10.500000, -18.500000) " x="8" y="8" width="5" height="21" rx="2.5"></rect>
                                <rect id="Rectangle-20-Copy" x="-2.27373675e-13" y="0" width="5" height="21" rx="2.5"></rect>
                                <rect id="Rectangle-20-Copy-2" x="16" y="16" width="5" height="21" rx="2.5"></rect>
                            </g>
                        </g>
                        <rect id="Rectangle-22" fill="#FFFFFF" x="63" y="57" width="19" height="9"></rect>
                        <g id="Group-25" transform="translate(65.000000, 59.000000)">
                            <path d="M10.2352941,3 C4.58249727,3 0,7.58249727 0,13.2352941 C0,18.888091 4.58249727,23.4705882 10.2352941,23.4705882 C15.888091,23.4705882 20.4705882,18.888091 20.4705882,13.2352941 L10.2352941,13.2352941 L10.2352941,3 Z" id="Combined-Shape" stroke="#21C4D3" stroke-width="2" fill="#FFFFFF"></path>
                            <path d="M14,1.11330754e-30 C19.6527969,2.60812289e-15 24.2352941,4.58249727 24.2352941,10.2352941 L14,10.2352941 L14,-2.22044605e-16 Z" id="Combined-Shape" fill="#21C4D3"></path>
                        </g>
                    </g>
                </g>
            </g>
        </g>
    </g>
</svg>