<?xml version="1.0" encoding="UTF-8"?>
<svg width="108px" height="86px" viewBox="0 0 108 86" version="1.1" xmlns="http://www.w3.org/2000/svg" xmlns:xlink="http://www.w3.org/1999/xlink">
    <!-- Generator: Sketch 47.1 (45422) - http://www.bohemiancoding.com/sketch -->
    <title>3</title>
    <desc>Created with Sketch.</desc>
    <defs></defs>
    <g id="Page-1" stroke="none" stroke-width="1" fill="none" fill-rule="evenodd">
        <g id="立即试用落地页" transform="translate(-1028.000000, -1844.000000)">
            <g id="Group-22" transform="translate(504.000000, 1844.000000)">
                <g id="3" transform="translate(498.000000, 0.000000)">
                    <g transform="translate(26.000000, 0.000000)">
                        <circle id="Oval-Copy-4" fill="#4DA1FF" opacity="0.11401721" cx="72" cy="36" r="36"></circle>
                        <circle id="Oval-Copy-5" fill="#4DA1FF" opacity="0.11401721" cx="10.5" cy="75.5" r="10.5"></circle>
                        <g id="电子账单" transform="translate(15.000000, 17.000000)">
                            <rect id="Rectangle-25" fill="#FFFFFF" x="20" y="4" width="44" height="58"></rect>
                            <path d="M60.4076305,2.34224267e-16 L21.9297189,2.34224267e-16 C18.7008032,2.34224267e-16 17.0863454,2.16033755 17.0863454,6.61603376 L17.0863454,53.6033755 C17.0863454,55.0886076 16.2791165,56.7088608 15.0682731,58.1940928 C13.7228916,59.5443038 10.4939759,60.4894515 8.61044177,60.4894515 C4.17068273,60.4894515 3.49799197,56.1687764 3.49799197,53.7383966 L3.49799197,29.164557 C3.49799197,27.5443038 4.84337349,26.1940928 6.45783133,26.1940928 L12.5120482,26.1940928 C13.4538153,26.1940928 14.2610442,25.3839662 14.2610442,24.4388186 C14.2610442,23.4936709 13.4538153,22.6835443 12.5120482,22.6835443 L6.59236948,22.6835443 C2.95983936,22.6835443 0,25.6540084 0,29.2995781 L0,53.6033755 C0,59.9493671 3.36345382,64 8.61044177,64 L60.4076305,64 C64.0401606,64 67,61.0295359 67,57.3839662 L67,6.61603376 C67,2.97046414 64.0401606,0 60.4076305,2.34224267e-16 Z M60.4076305,60.3544304 L17.8935743,60.3544304 C19.6425703,58.3291139 20.7188755,55.8987342 20.7188755,53.6033755 L20.7188755,6.61603376 C20.7188755,3.91561181 20.9879518,3.64556962 21.9297189,3.64556962 L60.4076305,3.64556962 C62.0220884,3.64556962 63.3674699,4.99578059 63.3674699,6.61603376 L63.3674699,57.5189873 C63.3674699,59.1392405 62.0220884,60.3544304 60.4076305,60.3544304 Z" id="Shape" stroke="#4DA1FF" stroke-width="1.2" fill="#4DA1FF" fill-rule="nonzero"></path>
                            <path d="M30.6470588,21.4375 L57,21.4375 L57,26.125 L30.6470588,26.125 L30.6470588,21.4375 Z M25,13 L57,13 L57,17.6875 L25,17.6875 L25,13 Z M37.2352941,29.875 L57,29.875 L57,34.5625 L37.2352941,34.5625 L37.2352941,29.875 Z M43.8235294,38.3125 L57,38.3125 L57,43 L43.8235294,43 L43.8235294,38.3125 Z" id="Combined-Shape" fill="#4DA1FF" transform="translate(41.000000, 28.000000) scale(-1, 1) translate(-41.000000, -28.000000) "></path>
                        </g>
                        <rect id="Rectangle-23" fill="#FFFFFF" x="69" y="62" width="14" height="13"></rect>
                        <rect id="Rectangle-23-Copy" fill="#FFFFFF" transform="translate(78.000000, 73.000000) rotate(25.000000) translate(-78.000000, -73.000000) " x="71" y="71" width="14" height="4"></rect>
                        <circle id="Oval-9" fill="#FFFFFF" cx="85" cy="53" r="10"></circle>
                        <path d="M86.1755896,46.0118923 C82.6686508,46.0118923 79.7228221,48.8197692 79.7228221,52.3296154 C79.7228221,55.8394616 82.5283732,58.6473385 86.1755896,58.6473385 C89.6825285,58.6473385 92.6283571,55.8394616 92.6283571,52.3296154 C92.6283571,48.8197692 89.822806,46.0118923 86.1755896,46.0118923 L86.1755896,46.0118923 Z M86.1755896,61.7360031 C80.9853201,61.7360031 76.7769935,57.5241877 76.7769935,52.4700092 C76.7769935,47.2754369 80.9853201,43.2040154 86.1755896,43.2040154 C91.3658591,43.2040154 95.5741857,47.4158308 95.5741857,52.4700092 C95.5741857,57.5241877 91.3658591,61.7360031 86.1755896,61.7360031 Z M98.5200143,52.3296154 C98.5200143,45.5907107 93.0491897,40.1153507 86.1755896,40.1153507 C79.3019895,40.1153507 73.8311649,45.5907107 73.8311649,52.3296154 C73.8311649,59.06852 79.3019895,64.5438801 86.1755896,64.5438801 C93.0491898,64.5438801 98.5200144,59.2089139 98.5200143,52.3296154 Z M99.6422348,69.3172709 L96.415851,63.701517 C94.4519653,65.526637 91.9269693,66.7901816 89.1214183,67.2113632 L92.6283571,73.2482986 C93.0491897,73.809874 93.8908551,73.809874 94.1714102,73.1079047 L95.0130755,70.4404216 C95.1533531,70.0192401 95.5741857,69.8788462 95.9950184,69.8788462 L98.8005695,70.4404216 C99.5019572,70.7212093 100.063067,70.0192401 99.6422348,69.3172709 L99.6422348,69.3172709 Z M73.2700547,69.4576647 C72.849222,70.0192401 73.4103322,70.7212093 74.11172,70.5808155 L76.9172711,70.0192401 C77.3381037,69.8788462 77.7589364,70.159634 77.8992139,70.5808155 L78.7408793,73.2482986 C79.0214344,73.9502678 79.8630997,73.9502678 80.2839324,73.3886924 L83.7908712,67.351757 C80.9853201,66.9305755 78.4603242,65.6670308 76.4964384,63.9823047 L73.2700547,69.4576647 Z" id="Shape" fill="#21C4D3" fill-rule="nonzero" transform="translate(86.456145, 56.954570) rotate(-16.000000) translate(-86.456145, -56.954570) "></path>
                    </g>
                </g>
            </g>
        </g>
    </g>
</svg>