<?xml version="1.0" encoding="UTF-8"?>
<svg width="108px" height="86px" viewBox="0 0 108 86" version="1.1" xmlns="http://www.w3.org/2000/svg" xmlns:xlink="http://www.w3.org/1999/xlink">
    <!-- Generator: Sketch 47.1 (45422) - http://www.bohemiancoding.com/sketch -->
    <title>4</title>
    <desc>Created with Sketch.</desc>
    <defs></defs>
    <g id="Page-1" stroke="none" stroke-width="1" fill="none" fill-rule="evenodd">
        <g id="立即试用落地页" transform="translate(-1277.000000, -1845.000000)">
            <g id="Group-22" transform="translate(504.000000, 1844.000000)">
                <g id="Group-28" transform="translate(747.000000, 1.000000)">
                    <g id="4" transform="translate(26.000000, 0.000000)">
                        <circle id="Oval-Copy-6" fill="#4DA1FF" opacity="0.11401721" cx="72" cy="36" r="36"></circle>
                        <circle id="Oval-Copy-7" fill="#4DA1FF" opacity="0.11401721" cx="10.5" cy="75.5" r="10.5"></circle>
                        <g id="年会参与特权" transform="translate(15.000000, 16.000000)">
                            <path d="M34.7514648,46.171875 C49.6631531,46.171875 60,51.3594035 60,37 C60,22.6405965 47.9116882,11 33,11 C18.0883118,11 3.4921875,25.7861043 3.4921875,40.1455078 C3.4921875,54.5049113 19.8397766,46.171875 34.7514648,46.171875 Z" id="Oval-10" fill="#FFFFFF"></path>
                            <ellipse id="Oval-11" fill="#FFFFFF" cx="32.5" cy="6" rx="3.5" ry="3"></ellipse>
                            <path d="M32,17 L32,21.2065009 C41.8221797,21.2065009 49.793499,29.1673039 49.793499,39 L54,39 C54,26.8432123 44.1462715,17 32,17 Z" id="Shape" stroke="#4DA1FF" stroke-width="0.8" fill="#4DA1FF" fill-rule="nonzero"></path>
                            <path d="M6.93775931,45 C6.42946052,42.9960034 6.14937754,40.8892378 6.14937762,38.7208107 C6.14937762,24.5797887 17.7261411,13.1107622 32,13.1107622 C46.2738588,13.1107622 57.8506224,24.5797887 57.8506224,38.7208107 C57.8506224,40.8892378 57.5809129,42.9857265 57.0622407,45 L61.3257262,45 C61.7614108,42.9754496 62,40.8789609 62,38.7208107 C62,22.3085927 48.5663901,9 32,9 C15.4336098,9 2,22.3085927 2,38.7208107 C2,40.8789609 2.23858918,42.9754496 2.67427383,45 L6.93775931,45 Z" id="Shape" stroke="#4DA1FF" stroke-width="0.8" fill="#4DA1FF" fill-rule="nonzero"></path>
                            <path d="M60.3581301,29 C61.4220711,32.0460412 62,35.3166653 62,38.7208107 C62,39.4884969 61.9698106,40.2483808 61.9112993,41 L57.7498056,41 C57.8167084,40.2496214 57.8506224,39.4897389 57.8506224,38.7208107 C57.8506224,35.2801164 57.165264,31.9976074 55.9224536,29 L60.3581301,29 Z" id="Combined-Shape" stroke="#FFFFFF" fill="#FFFFFF" fill-rule="nonzero"></path>
                            <path d="M2.0708614,44.3216866 L61.9291098,44.3216866 C63.0680836,44.3216866 63.9999712,45.4466867 63.9999712,46.8216866 C63.9999712,48.1966866 63.0680836,49.3216866 61.9291098,49.3216866 L2.0708614,49.3216866 C0.931887654,49.3216866 0,48.1966866 0,46.8216866 C0,45.4341867 0.931887654,44.3216866 2.0708614,44.3216866 Z M32.0051627,1.13639821e-15 C28.5778871,1.13639821e-15 25.7925785,2.78123315 25.7925786,6.20349398 C25.7925787,9.6257548 28.5778872,12.406988 32.0051627,12.406988 C35.4324383,12.406988 38.2177469,9.62575488 38.2177469,6.20349398 C38.2177469,2.78123307 35.4324384,-7.99669149e-08 32.0051627,1.13639821e-15 Z M32.0051627,8.27132533 C30.866189,8.27132533 29.9343013,7.3408012 29.9343014,6.20349398 C29.9343015,5.06618676 30.8661891,4.13566262 32.0051627,4.13566262 C33.1441364,4.13566262 34.0760241,5.06618676 34.0760241,6.20349398 C34.0760241,7.3408012 33.1441365,8.27132533 32.0051627,8.27132533 Z M57.7977413,52.593012 L6.2125842,52.593012 C2.78530857,52.593012 1.42108547e-14,55.3742451 1.42108547e-14,58.796506 C1.42108547e-14,62.2187669 2.78530857,65.0000001 6.2125842,65 L57.787387,65 C61.2146627,65 63.9999712,62.2187668 63.9999712,58.796506 C64.0103255,55.363906 61.225017,52.593012 57.7977413,52.593012 Z M59.8686027,58.796506 C59.8686027,59.9338132 58.9367151,60.8643374 57.7977413,60.8643374 L6.2125842,60.8643374 C5.07361045,60.8643374 4.1417228,59.9338132 4.1417228,58.796506 C4.1417228,57.6591988 5.07361045,56.7286747 6.2125842,56.7286747 L57.787387,56.7286747 C58.9367151,56.7286747 59.8686027,57.6488596 59.8686027,58.796506 Z" id="Shape" fill="#4DA1FF" fill-rule="nonzero"></path>
                            <path d="M79.6250373,40.2500207 C78.3901156,40.2500207 77.2756498,40.762407 76.4801237,41.585215 L64.6948684,35.6925734 C64.7314688,35.4635183 64.7499007,35.2319277 64.7499917,34.9999669 C64.7499917,34.7642585 64.7307996,34.5330582 64.6948684,34.3074597 L76.4801237,28.4148513 C77.2756498,29.237593 78.3901156,29.7499793 79.6250373,29.7499793 C82.0412821,29.7499793 84,27.7912899 84,25.3749731 C84,22.9587225 82.041249,21 79.6250373,21 C77.2087593,21 75.2500414,22.9587557 75.2500414,25.3749731 C75.2500414,25.6107477 75.2692666,25.8418817 75.3050985,26.0675133 L63.5198432,31.9601881 C62.7243833,31.1374133 61.6098513,30.6249938 60.3749959,30.6249938 C57.958751,30.6249938 56,32.5837826 56,34.9999669 C56,37.4163168 57.9587842,39.3749731 60.3749959,39.3749731 C61.6098513,39.3749731 62.7243833,38.8626862 63.5198432,38.0399114 L75.3050985,43.932553 C75.2685682,44.161571 75.2501588,44.3931137 75.2500414,44.6250269 C75.2500414,47.0413438 77.2087925,49 79.6250373,49 C82.0412821,49 84,47.0413438 84,44.6250269 C84,42.2087764 82.0412821,40.2500207 79.6250373,40.2500207 L79.6250373,40.2500207 Z" id="Shape" fill="#21C4D3" fill-rule="nonzero"></path>
                        </g>
                    </g>
                </g>
            </g>
        </g>
    </g>
</svg>