<?xml version="1.0" encoding="UTF-8"?>
<svg width="70px" height="70px" viewBox="0 0 70 70" version="1.1" xmlns="http://www.w3.org/2000/svg" xmlns:xlink="http://www.w3.org/1999/xlink">
    <!-- Generator: Sketch 47.1 (45422) - http://www.bohemiancoding.com/sketch -->
    <title>左翻页</title>
    <desc>Created with Sketch.</desc>
    <defs></defs>
    <g id="Page-1" stroke="none" stroke-width="1" fill="none" fill-rule="evenodd">
        <g id="落地页移动端-copy" transform="translate(-20.000000, -2261.000000)" fill-rule="nonzero">
            <g id="左翻页" transform="translate(20.000000, 2261.000000)">
                <path d="M35,0 C15.6780388,0.0193123195 0.0193123195,15.6780388 0,35 C0.0193123195,54.3219612 15.6780388,69.9806877 35,70 C54.3219612,69.9806877 69.9806877,54.3219612 70,35 C69.9806877,15.6780388 54.3219612,0.0193123195 35,0 Z" id="Shape" fill="#000000" opacity="0.699999988"></path>
                <path d="M43.8347959,17.2729785 C42.905506,16.312638 41.3916163,16.3016287 40.4490607,17.2483569 L24.8592667,33.1884172 C24.3955543,33.6647931 24.1506111,34.3195316 24.1850093,34.9907225 C24.1507138,35.6662748 24.395339,36.3255232 24.8592667,36.8078007 L40.4490607,52.7478611 C41.3689404,53.698257 42.8860195,53.6884084 43.8251637,52.7281638 C44.7643079,51.7679192 44.7739402,50.2167548 43.8540604,49.2663589 L29.9017487,35.0005711 L43.8492443,20.7347834 C44.297611,20.2744632 44.5481442,19.6504691 44.5454328,19.0008118 C44.5427213,18.3511545 44.2869886,17.7293693 43.8347959,17.2729785 Z" id="Shape" fill="#FFFFFF"></path>
            </g>
        </g>
    </g>
</svg>